inDegrees=no
num_controls=7
num_derivatives=13
num_iterations=500
num_multipliers=7
num_parameters=0
num_slacks=7
num_states=26
objective=5.617115
objective_accelerations=0.611225
objective_balance=0.123124
objective_effort=0.398661
objective_height=4.444092
objective_ligament=0.040013
solver_duration=5554.773388
status=Maximum_Iterations_Exceeded
success=false
DataType=double
version=3
OpenSimVersion=4.4-2022-07-23-0e9fedc
endheader
time	/jointset/ground_pelvis/pelvis_tilt/value	/jointset/ground_pelvis/pelvis_tx/value	/jointset/ground_pelvis/pelvis_ty/value	/jointset/hip_l/hip_flexion_l/value	/jointset/hip_l/hip_adduction_l/value	/jointset/hip_l/hip_rotation_l/value	/jointset/back/lumbar_extension/value	/jointset/patellofemoral_l/patellar_flexion_l/value	/jointset/knee_l/knee_flexion_l/value	/jointset/knee_l/knee_adduction_l/value	/jointset/knee_l/knee_rotation_l/value	/jointset/ankle_l/ankle_angle_l/value	/jointset/subtalar_l/subtalar_angle_l/value	/jointset/ground_pelvis/pelvis_tilt/speed	/jointset/ground_pelvis/pelvis_tx/speed	/jointset/ground_pelvis/pelvis_ty/speed	/jointset/hip_l/hip_flexion_l/speed	/jointset/hip_l/hip_adduction_l/speed	/jointset/hip_l/hip_rotation_l/speed	/jointset/back/lumbar_extension/speed	/jointset/patellofemoral_l/patellar_flexion_l/speed	/jointset/knee_l/knee_flexion_l/speed	/jointset/knee_l/knee_adduction_l/speed	/jointset/knee_l/knee_rotation_l/speed	/jointset/ankle_l/ankle_angle_l/speed	/jointset/subtalar_l/subtalar_angle_l/speed	/forceset/tau_hip_flexion_l	/forceset/tau_hip_adduction_l	/forceset/tau_hip_rotation_l	/forceset/tau_knee_flexion_l	/forceset/tau_ankle_angle_l	/forceset/tau_subtalar_angle_l	/forceset/tau_lumbar_extension	lambda_cid13_p0	lambda_cid13_p1	lambda_cid13_p2	lambda_cid13_p3	lambda_cid13_p4	lambda_cid13_p5	lambda_cid14_p0	/jointset/ground_pelvis/pelvis_tilt/accel	/jointset/ground_pelvis/pelvis_tx/accel	/jointset/ground_pelvis/pelvis_ty/accel	/jointset/hip_l/hip_flexion_l/accel	/jointset/hip_l/hip_adduction_l/accel	/jointset/hip_l/hip_rotation_l/accel	/jointset/back/lumbar_extension/accel	/jointset/patellofemoral_l/patellar_flexion_l/accel	/jointset/knee_l/knee_flexion_l/accel	/jointset/knee_l/knee_adduction_l/accel	/jointset/knee_l/knee_rotation_l/accel	/jointset/ankle_l/ankle_angle_l/accel	/jointset/subtalar_l/subtalar_angle_l/accel	gamma_cid13_p0	gamma_cid13_p1	gamma_cid13_p2	gamma_cid13_p3	gamma_cid13_p4	gamma_cid13_p5	gamma_cid14_p0
1.5	-0.396419416161072	-0.03083212587019936	0.7735149294363042	1.182746308855508	-0.3073716700094873	-0.0246503419895163	-0.3367056670463373	0.738973586588792	0.7389735865887586	-0.1719545440919901	0.1745301107463462	0.1269616958832368	-0.02887094233448388	0.5906384361647952	0.1705979526456939	0.4599042179876465	-2.125459338853602	0.01000882368200071	-0.664741668990412	0.5754348456252226	-1.88159007222258	-1.881590072222665	0.008772221810089176	2.252853166671413e-06	-0.4613517445239264	-0.06107811887999634	-0.225647501097957	0.0286233079734164	-0.02156940588559368	-0.2035758375151884	0.06725783011193881	0.04538578538996677	0.2098777269505012	-16.55003544474426	-20.11002112305219	6.569367910711408	1.040187426007899	-608.7095156217384	-58.32677728706443	-25.37217003158318	0.5301504784707519	0.4998922031561023	-0.3370660257994151	-1.344577059231877	0.6242026658225917	-0.3981109046702327	1.592667847557982	-1.177828491807454	-1.17782849180746	0.01292472905795028	-0.00605741982307267	-0.3577664483708826	0.6213130243143982	3.662646792784607e-07	9.030561119895084e-07	-1.819657080611961e-06	-1.346266352109519e-07	4.15587789502819e-07	4.255211383229655e-07	3.580533373376878e-07
1.51	-0.3904867622414531	-0.02910129114533228	0.7780962618190215	1.161426307441799	-0.3072416142872196	-0.03131554765885178	-0.3308730812136566	0.7201006816607325	0.7201006816607707	-0.1718697735950079	0.1745301088289516	0.1223304576052088	-0.02945218504967075	0.5958113782865453	0.1755486701603931	0.4562705011388978	-2.138242630028387	0.01602140913110493	-0.6682131727313343	0.5910034715196213	-1.892723062261897	-1.892723062261931	0.008179407219446058	-5.502350668060448e-06	-0.4648162712753518	-0.05515093347887715	-0.2184665588561921	0.02773517528558934	-0.0214909326285164	-0.2021655565008449	0.06963029497818618	0.04488174669224797	0.2041863448195078	-15.59413961856799	-20.14827390562718	6.678023256296069	0.7927229640048068	-604.7047837785244	-58.66338272206431	-26.4901128704274	0.4987666447828502	0.4895791897028493	-0.3901887624459867	-1.200400613595171	0.5928534462337109	-0.3083528435397581	1.527132551713623	-1.040939193928347	-1.040939193920776	-0.09569976842015915	0.001866519213490617	-0.3288371197017755	0.581433283019917	4.130387958967096e-07	9.709943180213258e-07	-2.022925659109824e-06	-1.580088078833073e-07	4.692026967515723e-07	4.948003032110529e-07	3.943278879453577e-07
1.52	-0.3845047987874723	-0.02732156571250307	0.7826385241836445	1.139987434022939	-0.3070508193181063	-0.03801280491254291	-0.3248871746037663	0.7011244658454979	0.7011244658456007	-0.1717909942869855	0.1745300295775006	0.1176669657934313	-0.0299735535138447	0.6005003430385409	0.1803760942381172	0.4520902143687806	-2.149233739882904	0.02215667305138644	-0.6711519858617196	0.6060990010673406	-1.902252249658599	-1.902252249658583	0.007573984017013777	-1.321395941601871e-05	-0.4678024512737131	-0.04910326867738796	-0.2112856166144278	0.02684704259775986	-0.02141245937139984	-0.2007552754865115	0.07200275984443003	0.04437770799452484	0.1984949626885156	-14.63916579491638	-20.19067118286294	6.792259371425733	0.5128559744054522	-600.7455961424358	-59.08599848111972	-27.60479226325159	0.4333550045197775	0.4752335157610692	-0.446380010073098	-0.986140795178206	0.6487383600580481	-0.291572782562836	1.498048578222166	-0.8570679632846603	-0.8570679632846578	0.01040300670012852	-0.006048700805715234	-0.2620970977580434	0.6454089043883979	4.252810677426275e-07	1.084330712328559e-06	-2.073192990649597e-06	-1.47979908015318e-07	4.872059170269832e-07	5.644969724005751e-07	4.117173785676835e-07
1.53	-0.3784783365534455	-0.02549422162888775	0.7871362891172842	1.118447621708291	-0.3067982145944423	-0.04473707845306383	-0.3187528591119406	0.6820611441490421	0.6820611441490894	-0.1717183198938037	0.1745301672084006	0.1129760550265833	-0.03043399469517009	0.6047076677607115	0.1850667088587707	0.4473761094434386	-2.158423794201315	0.02837000148198918	-0.6735853927527705	0.6206694823506729	-1.9101421013102	-1.91014210131016	0.006929604151743249	1.969960664367172e-05	-0.4703002326171771	-0.0429803201562907	-0.2039895420093259	0.0257253794297462	-0.02131694642631197	-0.1995545957917181	0.07455663399843566	0.04368263932425914	0.1926861437163082	-13.63847186276034	-20.15533838868697	6.890936440768374	0.2576709988268245	-596.8788959271717	-59.41293815328557	-28.71067607331737	0.4017998711301728	0.4620577757164429	-0.4968338204320574	-0.8396445223558456	0.6086224950821687	-0.2012466111323672	1.422355661334469	-0.7145270396459875	-0.7145270396422994	-0.1064411274610663	0.005200096341157065	-0.2316795471054198	0.596445691474383	4.008332545179441e-07	1.24590268167842e-06	-1.960896497296402e-06	-1.024517435732128e-07	4.673717198932184e-07	6.346372399103719e-07	4.090414929555815e-07
